HIERARCHY
ROOT mixamorig:Hips
{
	OFFSET -0.000008 104.274872 1.554316
	CHANNELS 6 Xposition Yposition Zposition Xrotation Yrotation Zrotation
	JOINT mixamorig:Spine
	{
		OFFSET -0.000005 10.181595 0.131519
		CHANNELS 6 Xposition Yposition Zposition Xrotation Yrotation Zrotation
		JOINT mixamorig:Spine1
		{
			OFFSET -0.000000 9.893959 -1.470707
			CHANNELS 6 Xposition Yposition Zposition Xrotation Yrotation Zrotation
			JOINT mixamorig:Spine2
			{
				OFFSET -0.000000 9.220757 -1.370641
				CHANNELS 6 Xposition Yposition Zposition Xrotation Yrotation Zrotation
				JOINT mixamorig:Neck
				{
					OFFSET 0.000001 16.740417 -2.049036
					CHANNELS 6 Xposition Yposition Zposition Xrotation Yrotation Zrotation
					JOINT mixamorig:Head
					{
						OFFSET 0.000000 9.617874 1.685006
						CHANNELS 6 Xposition Yposition Zposition Xrotation Yrotation Zrotation
						JOINT mixamorig:HeadTop_End
						{
							OFFSET 0.000002 22.037354 7.501101
							CHANNELS 6 Xposition Yposition Zposition Xrotation Yrotation Zrotation
							End Site
							{
								OFFSET 0.000168 2310.654297 -282.823242
							}
						}
					}
				}
				JOINT mixamorig:RightShoulder
				{
					OFFSET -4.569970 11.014908 -2.160885
					CHANNELS 6 Xposition Yposition Zposition Xrotation Yrotation Zrotation
					JOINT mixamorig:RightArm
					{
						OFFSET -10.592851 -0.524811 -2.232101
						CHANNELS 6 Xposition Yposition Zposition Xrotation Yrotation Zrotation
						JOINT mixamorig:RightForeArm
						{
							OFFSET -27.841511 0.000031 -0.000004
							CHANNELS 6 Xposition Yposition Zposition Xrotation Yrotation Zrotation
							JOINT mixamorig:RightHand
							{
								OFFSET -28.328831 -0.000015 0.000015
								CHANNELS 6 Xposition Yposition Zposition Xrotation Yrotation Zrotation
								JOINT mixamorig:RightHandThumb1
								{
									OFFSET -2.464806 -1.573990 2.681852
									CHANNELS 6 Xposition Yposition Zposition Xrotation Yrotation Zrotation
									JOINT mixamorig:RightHandThumb2
									{
										OFFSET -3.215179 -1.872803 1.924282
										CHANNELS 6 Xposition Yposition Zposition Xrotation Yrotation Zrotation
										JOINT mixamorig:RightHandThumb3
										{
											OFFSET -2.654831 -1.527969 1.512609
											CHANNELS 6 Xposition Yposition Zposition Xrotation Yrotation Zrotation
											JOINT mixamorig:RightHandThumb4
											{
												OFFSET -2.018814 -1.152008 1.108052
												CHANNELS 6 Xposition Yposition Zposition Xrotation Yrotation Zrotation
												End Site
												{
													OFFSET -188.809540 -114.533607 132.431396
												}
											}
										}
									}
								}
								JOINT mixamorig:RightHandIndex1
								{
									OFFSET -9.108284 -0.517868 2.259835
									CHANNELS 6 Xposition Yposition Zposition Xrotation Yrotation Zrotation
									JOINT mixamorig:RightHandIndex2
									{
										OFFSET -3.699989 0.000000 0.001215
										CHANNELS 6 Xposition Yposition Zposition Xrotation Yrotation Zrotation
										JOINT mixamorig:RightHandIndex3
										{
											OFFSET -2.850006 0.000031 -0.000522
											CHANNELS 6 Xposition Yposition Zposition Xrotation Yrotation Zrotation
											JOINT mixamorig:RightHandIndex4
											{
												OFFSET -2.772186 -0.000015 -0.000020
												CHANNELS 6 Xposition Yposition Zposition Xrotation Yrotation Zrotation
												End Site
												{
													OFFSET -277.218445 0.000000 -0.050231
												}
											}
										}
									}
								}
								JOINT mixamorig:RightHandMiddle1
								{
									OFFSET -9.532516 -0.000031 -0.000023
									CHANNELS 6 Xposition Yposition Zposition Xrotation Yrotation Zrotation
									JOINT mixamorig:RightHandMiddle2
									{
										OFFSET -3.700005 -0.000015 0.003713
										CHANNELS 6 Xposition Yposition Zposition Xrotation Yrotation Zrotation
										JOINT mixamorig:RightHandMiddle3
										{
											OFFSET -2.949974 0.000015 -0.002054
											CHANNELS 6 Xposition Yposition Zposition Xrotation Yrotation Zrotation
											JOINT mixamorig:RightHandMiddle4
											{
												OFFSET -2.946640 0.000000 -0.000156
												CHANNELS 6 Xposition Yposition Zposition Xrotation Yrotation Zrotation
												End Site
												{
													OFFSET -294.664337 0.000000 -0.113670
												}
											}
										}
									}
								}
								JOINT mixamorig:RightHandRing1
								{
									OFFSET -9.103600 -0.043076 -1.865134
									CHANNELS 6 Xposition Yposition Zposition Xrotation Yrotation Zrotation
									JOINT mixamorig:RightHandRing2
									{
										OFFSET -3.379288 0.000000 -0.001055
										CHANNELS 6 Xposition Yposition Zposition Xrotation Yrotation Zrotation
										JOINT mixamorig:RightHandRing3
										{
											OFFSET -2.889687 -0.000015 0.000379
											CHANNELS 6 Xposition Yposition Zposition Xrotation Yrotation Zrotation
											JOINT mixamorig:RightHandRing4
											{
												OFFSET -2.638809 -0.000015 0.000941
												CHANNELS 6 Xposition Yposition Zposition Xrotation Yrotation Zrotation
												End Site
												{
													OFFSET -263.880371 0.000000 0.516020
												}
											}
										}
									}
								}
								JOINT mixamorig:RightHandPinky1
								{
									OFFSET -8.076683 -0.486710 -3.806280
									CHANNELS 6 Xposition Yposition Zposition Xrotation Yrotation Zrotation
									JOINT mixamorig:RightHandPinky2
									{
										OFFSET -3.600014 -0.000015 -0.003747
										CHANNELS 6 Xposition Yposition Zposition Xrotation Yrotation Zrotation
										JOINT mixamorig:RightHandPinky3
										{
											OFFSET -2.099983 0.000000 -0.005739
											CHANNELS 6 Xposition Yposition Zposition Xrotation Yrotation Zrotation
											JOINT mixamorig:RightHandPinky4
											{
												OFFSET -2.115768 -0.000031 -0.003680
												CHANNELS 6 Xposition Yposition Zposition Xrotation Yrotation Zrotation
												End Site
												{
													OFFSET -211.577087 0.000000 -0.350686
												}
											}
										}
									}
								}
							}
						}
					}
				}
				JOINT mixamorig:LeftShoulder
				{
					OFFSET 4.570447 11.014725 -2.160855
					CHANNELS 6 Xposition Yposition Zposition Xrotation Yrotation Zrotation
					JOINT mixamorig:LeftArm
					{
						OFFSET 10.592371 -0.524597 -2.232119
						CHANNELS 6 Xposition Yposition Zposition Xrotation Yrotation Zrotation
						JOINT mixamorig:LeftForeArm
						{
							OFFSET 27.841532 -0.000031 0.000026
							CHANNELS 6 Xposition Yposition Zposition Xrotation Yrotation Zrotation
							JOINT mixamorig:LeftHand
							{
								OFFSET 28.328846 -0.000061 0.000022
								CHANNELS 6 Xposition Yposition Zposition Xrotation Yrotation Zrotation
								JOINT mixamorig:LeftHandThumb1
								{
									OFFSET 2.466141 -1.576172 2.681732
									CHANNELS 6 Xposition Yposition Zposition Xrotation Yrotation Zrotation
									JOINT mixamorig:LeftHandThumb2
									{
										OFFSET 3.217812 -1.872070 1.916482
										CHANNELS 6 Xposition Yposition Zposition Xrotation Yrotation Zrotation
										JOINT mixamorig:LeftHandThumb3
										{
											OFFSET 2.656029 -1.528778 1.514513
											CHANNELS 6 Xposition Yposition Zposition Xrotation Yrotation Zrotation
											JOINT mixamorig:LeftHandThumb4
											{
												OFFSET 2.020889 -1.154053 1.115139
												CHANNELS 6 Xposition Yposition Zposition Xrotation Yrotation Zrotation
												End Site
												{
													OFFSET 190.885437 -115.081749 130.048782
												}
											}
										}
									}
								}
								JOINT mixamorig:LeftHandIndex1
								{
									OFFSET 9.109314 -0.518021 2.259871
									CHANNELS 6 Xposition Yposition Zposition Xrotation Yrotation Zrotation
									JOINT mixamorig:LeftHandIndex2
									{
										OFFSET 3.699989 0.000000 -0.000322
										CHANNELS 6 Xposition Yposition Zposition Xrotation Yrotation Zrotation
										JOINT mixamorig:LeftHandIndex3
										{
											OFFSET 2.850006 0.000000 0.000352
											CHANNELS 6 Xposition Yposition Zposition Xrotation Yrotation Zrotation
											JOINT mixamorig:LeftHandIndex4
											{
												OFFSET 2.774864 -0.000031 -0.000027
												CHANNELS 6 Xposition Yposition Zposition Xrotation Yrotation Zrotation
												End Site
												{
													OFFSET 277.486267 0.000000 -0.009857
												}
											}
										}
									}
								}
								JOINT mixamorig:LeftHandMiddle1
								{
									OFFSET 9.533394 0.000061 0.000044
									CHANNELS 6 Xposition Yposition Zposition Xrotation Yrotation Zrotation
									JOINT mixamorig:LeftHandMiddle2
									{
										OFFSET 3.699989 -0.000015 -0.000231
										CHANNELS 6 Xposition Yposition Zposition Xrotation Yrotation Zrotation
										JOINT mixamorig:LeftHandMiddle3
										{
											OFFSET 2.949997 -0.000015 -0.000059
											CHANNELS 6 Xposition Yposition Zposition Xrotation Yrotation Zrotation
											JOINT mixamorig:LeftHandMiddle4
											{
												OFFSET 2.952896 0.000031 0.000063
												CHANNELS 6 Xposition Yposition Zposition Xrotation Yrotation Zrotation
												End Site
												{
													OFFSET 295.289337 0.000000 0.022810
												}
											}
										}
									}
								}
								JOINT mixamorig:LeftHandRing1
								{
									OFFSET 9.104523 -0.042999 -1.865074
									CHANNELS 6 Xposition Yposition Zposition Xrotation Yrotation Zrotation
									JOINT mixamorig:LeftHandRing2
									{
										OFFSET 3.150009 -0.000031 0.000043
										CHANNELS 6 Xposition Yposition Zposition Xrotation Yrotation Zrotation
										JOINT mixamorig:LeftHandRing3
										{
											OFFSET 2.949982 -0.000015 0.000040
											CHANNELS 6 Xposition Yposition Zposition Xrotation Yrotation Zrotation
											JOINT mixamorig:LeftHandRing4
											{
												OFFSET 2.644348 0.000000 0.000057
												CHANNELS 6 Xposition Yposition Zposition Xrotation Yrotation Zrotation
												End Site
												{
													OFFSET 264.434631 0.000000 0.012105
												}
											}
										}
									}
								}
								JOINT mixamorig:LeftHandPinky1
								{
									OFFSET 8.077789 -0.486847 -3.806259
									CHANNELS 6 Xposition Yposition Zposition Xrotation Yrotation Zrotation
									JOINT mixamorig:LeftHandPinky2
									{
										OFFSET 3.599953 0.000031 0.014727
										CHANNELS 6 Xposition Yposition Zposition Xrotation Yrotation Zrotation
										JOINT mixamorig:LeftHandPinky3
										{
											OFFSET 2.100021 0.000015 0.007705
											CHANNELS 6 Xposition Yposition Zposition Xrotation Yrotation Zrotation
											JOINT mixamorig:LeftHandPinky4
											{
												OFFSET 2.125504 0.000031 0.007517
												CHANNELS 6 Xposition Yposition Zposition Xrotation Yrotation Zrotation
												End Site
												{
													OFFSET 212.550781 0.000000 0.625752
												}
											}
										}
									}
								}
							}
						}
					}
				}
			}
		}
	}
	JOINT mixamorig:RightUpLeg
	{
		OFFSET -8.207787 -6.751648 -1.599560
		CHANNELS 6 Xposition Yposition Zposition Xrotation Yrotation Zrotation
		JOINT mixamorig:RightLeg
		{
			OFFSET -0.000002 -44.370117 0.345942
			CHANNELS 6 Xposition Yposition Zposition Xrotation Yrotation Zrotation
			JOINT mixamorig:RightFoot
			{
				OFFSET 0.000003 -44.423679 -3.043532
				CHANNELS 6 Xposition Yposition Zposition Xrotation Yrotation Zrotation
				JOINT mixamorig:RightToeBase
				{
					OFFSET -0.000002 -8.728671 10.710558
					CHANNELS 6 Xposition Yposition Zposition Xrotation Yrotation Zrotation
					JOINT mixamorig:RightToe_End
					{
						OFFSET -0.000001 -0.000679 9.278119
						CHANNELS 6 Xposition Yposition Zposition Xrotation Yrotation Zrotation
						End Site
						{
							OFFSET 0.000000 -0.067690 927.812134
						}
					}
				}
			}
		}
	}
	JOINT mixamorig:LeftUpLeg
	{
		OFFSET 8.207793 -6.751686 -1.599556
		CHANNELS 6 Xposition Yposition Zposition Xrotation Yrotation Zrotation
		JOINT mixamorig:LeftLeg
		{
			OFFSET -0.000004 -44.370014 0.346954
			CHANNELS 6 Xposition Yposition Zposition Xrotation Yrotation Zrotation
			JOINT mixamorig:LeftFoot
			{
				OFFSET -0.000001 -44.423672 -3.044401
				CHANNELS 6 Xposition Yposition Zposition Xrotation Yrotation Zrotation
				JOINT mixamorig:LeftToeBase
				{
					OFFSET -0.000002 -8.728669 10.710558
					CHANNELS 6 Xposition Yposition Zposition Xrotation Yrotation Zrotation
					JOINT mixamorig:LeftToe_End
					{
						OFFSET -0.000003 -0.000679 9.278133
						CHANNELS 6 Xposition Yposition Zposition Xrotation Yrotation Zrotation
						End Site
						{
							OFFSET 0.000000 -0.068021 927.813477
						}
					}
				}
			}
		}
	}
}
MOTION
Frames: 3
Frame Time: 0.033333
0.000006 104.270477 1.554256 0.000010 0.000003 -0.000113 -0.000005 10.181587 0.131522 0.000001 -0.000003 0.000084 -0.000000 9.893967 -1.470711 0.000001 0.000000 -0.000000 -0.000000 9.220802 -1.370642 0.000000 -0.000000 -0.000000 0.000001 16.740433 -2.049030 0.000000 -0.000000 -0.000000 0.000000 9.617859 1.685014 0.000000 0.000000 0.000000 0.000002 22.037384 7.501101 0.000000 -0.000000 0.000000 -4.569968 11.014880 -2.160881 0.000008 0.000001 -0.000038 -10.592883 -0.524712 -2.231978 71.286295 16.542020 -11.901891 -27.841530 0.000016 0.000557 -53.147898 114.907223 76.174839 -28.328806 0.000020 0.000025 -0.000318 -0.000044 0.000007 -2.464387 -1.573832 2.682359 -40.502964 -157.823965 6.743483 -3.215268 -1.872595 1.924662 156.817592 31.534423 1.840115 -2.654938 -1.527887 1.513084 148.042410 26.531793 -38.883902 -2.018826 -1.151983 1.108060 -0.000006 -0.000001 0.000002 -9.108381 -0.517557 2.260132 100.066622 15.968221 -19.056153 -3.700065 0.000311 0.001500 98.105006 12.423193 -14.272624 -2.850055 0.000381 -0.000261 98.035167 9.288887 -10.683629 -2.772174 -0.000015 -0.000018 0.000002 -0.000001 0.000001 -9.532581 0.000288 0.000238 92.479484 14.765363 -15.557506 -3.700050 0.000334 0.003963 92.767452 9.838433 -10.226250 -2.950061 0.000346 -0.001807 96.100495 9.319977 -10.356040 -2.946633 0.000014 -0.000162 -0.000002 0.000000 0.000000 -9.103689 -0.042749 -1.864886 94.614977 14.482882 -15.637436 -3.379299 0.000348 -0.000819 93.944669 5.692486 -6.115415 -2.889728 0.000379 0.000644 100.113812 4.342437 -5.236934 -2.638797 0.000014 0.000943 0.000001 -0.000001 0.000001 -8.076740 -0.486365 -3.806007 94.139138 14.718721 -15.651008 -3.600019 0.000304 -0.003512 95.709754 3.649349 -3.665723 -2.099985 0.000334 -0.005478 98.859052 1.415303 -1.412857 -2.115775 -0.000042 -0.003676 0.000002 0.000001 -0.000004 4.570446 11.014691 -2.160851 -0.000018 0.000010 -0.000021 10.592511 -0.524514 -2.232399 69.154463 -55.339002 39.740400 27.841728 -0.000057 -0.000100 237.436937 -74.531373 251.516853 28.328831 -0.000041 0.000026 0.000025 -0.000088 0.000000 2.466174 -1.576146 2.681872 63.534836 138.679751 -124.585424 3.217852 -1.871952 1.916552 271.081356 29.914948 34.185636 2.656058 -1.528694 1.514642 106.398904 -185.460960 201.146585 2.020872 -1.154070 1.115145 0.000004 0.000003 0.000001 9.109266 -0.517888 2.260092 91.963511 -162.492359 163.079919 3.699951 0.000147 -0.000084 -85.825493 -17.431418 -16.231016 2.849957 0.000200 0.000582 -83.309095 -15.706652 -13.989346 2.774898 -0.000033 -0.000026 0.000001 -0.000001 -0.000001 9.533169 0.000187 0.000247 216.501888 -38.192570 267.210770 3.700064 0.000291 -0.000319 129.553703 -7.971316 16.821994 2.949983 0.000280 -0.000221 106.101402 5.127769 -6.810886 2.952858 -0.000015 0.000065 -0.000001 -0.000000 -0.000000 9.104306 -0.042928 -1.864933 198.438237 -31.719245 239.481541 3.149884 0.000406 -0.000087 131.829099 13.882208 -30.467005 2.949809 0.000306 -0.000176 105.793504 27.438135 -35.774721 2.644320 0.000010 0.000056 -0.000000 -0.000001 -0.000001 8.077524 -0.486709 -3.806127 196.782955 -21.989301 254.848346 3.599708 0.000414 0.014662 154.681805 13.967428 -56.601149 2.099762 0.000335 0.007566 131.174234 28.175220 -57.689034 2.125518 -0.000004 0.007523 -0.000007 0.000000 0.000000 -8.207786 -6.751667 -1.599560 -0.077001 -0.000003 0.000080 -0.000002 -44.370110 0.345938 0.153719 -0.000000 -0.000000 0.000000 -44.423679 -3.043532 -0.076700 0.000000 -0.000002 -0.000006 -8.728667 10.710559 -0.000009 -0.000000 -0.000000 -0.000001 -0.000679 9.278123 0.000000 -0.000000 -0.000000 8.207792 -6.751710 -1.599556 -0.074518 -0.000003 0.000081 -0.000002 -44.370014 0.346960 0.148822 0.000002 0.000000 -0.000001 -44.423664 -3.044403 -0.074314 0.000000 -0.000002 -0.000004 -8.728671 10.710558 0.000007 -0.000000 -0.000000 0.000000 -0.000680 9.278137 -0.000000 0.000000 -0.000001 
0.000006 104.270477 1.554256 0.000010 0.000003 -0.000113 -0.000005 10.181587 0.131522 0.000001 -0.000003 0.000084 -0.000000 9.893967 -1.470711 0.000001 0.000000 -0.000000 -0.000000 9.220802 -1.370642 0.000000 -0.000000 -0.000000 0.000001 16.740433 -2.049030 0.000000 -0.000000 -0.000000 0.000000 9.617859 1.685014 0.000000 0.000000 0.000000 0.000002 22.037384 7.501101 0.000000 -0.000000 0.000000 -4.569968 11.014880 -2.160881 0.000008 0.000001 -0.000038 -10.592877 -0.524698 -2.231998 71.318923 13.634845 -9.805454 -27.841515 0.000009 0.000540 -52.910043 113.709303 74.614769 -28.328833 0.000006 0.000021 -0.000321 -0.000043 0.000006 -2.464413 -1.573820 2.682346 -43.227629 -159.833270 1.021057 -3.215284 -1.872598 1.924652 156.685878 31.655680 2.602432 -2.654943 -1.527909 1.513103 148.630039 26.435766 -38.608577 -2.018842 -1.152014 1.108056 -0.000003 -0.000001 0.000002 -9.108393 -0.517552 2.260123 100.373475 15.981427 -19.173939 -3.700061 0.000319 0.001517 98.039538 12.423598 -14.256794 -2.850066 0.000376 -0.000251 97.701457 9.101363 -10.407204 -2.772180 -0.000016 -0.000023 -0.000001 0.000001 0.000001 -9.532582 0.000274 0.000226 92.935816 14.639773 -15.548360 -3.700058 0.000344 0.003959 92.838438 9.600802 -9.989638 -2.950028 0.000351 -0.001786 95.920137 9.121311 -10.103509 -2.946634 0.000014 -0.000152 0.000000 0.000000 0.000001 -9.103706 -0.042739 -1.864866 94.559249 14.296562 -15.421249 -3.379302 0.000342 -0.000820 94.065276 5.113168 -5.506412 -2.889730 0.000360 0.000632 100.673621 3.752935 -4.578087 -2.638803 -0.000016 0.000940 0.000007 -0.000001 -0.000002 -8.076733 -0.486365 -3.806000 93.847421 14.125093 -14.939782 -3.599988 0.000304 -0.003501 95.621556 2.604070 -2.512982 -2.099983 0.000342 -0.005469 99.340341 0.507898 -0.359798 -2.115759 -0.000054 -0.003680 0.000000 -0.000000 0.000002 4.570446 11.014691 -2.160851 -0.000018 0.000010 -0.000021 10.592512 -0.524500 -2.232400 69.206981 -54.325067 38.989343 27.841751 -0.000050 -0.000093 235.683682 -75.246855 248.843217 28.328838 -0.000040 0.000026 0.000023 -0.000090 0.000000 2.466176 -1.576134 2.681880 59.099687 135.745734 -119.706783 3.217818 -1.871975 1.916533 267.149353 34.793844 38.091323 2.656070 -1.528719 1.514651 102.606565 -191.472496 203.940720 2.020899 -1.154065 1.115149 0.000002 0.000004 0.000002 9.109270 -0.517859 2.260100 84.306268 -162.362080 160.556833 3.699929 0.000182 -0.000072 -96.639834 -17.509456 -19.636509 2.849970 0.000189 0.000579 -93.699281 -14.959695 -15.944877 2.774877 -0.000033 -0.000030 -0.000000 -0.000001 0.000001 9.533241 0.000209 0.000274 235.180980 -37.963090 293.293405 3.700064 0.000282 -0.000342 126.151504 -8.248959 16.157530 2.949979 0.000263 -0.000220 106.784414 5.393258 -7.252647 2.952858 -0.000030 0.000066 0.000001 0.000000 -0.000000 9.104302 -0.042903 -1.864903 208.104307 -35.098566 256.721348 3.149916 0.000405 -0.000091 129.458941 11.146986 -23.356511 2.949854 0.000310 -0.000166 107.262841 23.707781 -31.816141 2.644327 0.000026 0.000053 -0.000002 -0.000001 -0.000004 8.077543 -0.486671 -3.806104 201.865790 -22.765907 267.764289 3.599771 0.000433 0.014668 152.709574 12.222343 -46.822029 2.099814 0.000361 0.007565 129.663259 23.474957 -47.403613 2.125505 -0.000003 0.007523 -0.000002 -0.000004 -0.000000 -8.207786 -6.751667 -1.599560 -0.077001 -0.000003 0.000080 -0.000002 -44.370110 0.345938 0.153719 -0.000000 -0.000000 0.000000 -44.423679 -3.043532 -0.076700 0.000000 -0.000002 -0.000006 -8.728667 10.710559 -0.000009 -0.000000 -0.000000 -0.000001 -0.000679 9.278123 0.000000 -0.000000 -0.000000 8.207792 -6.751710 -1.599556 -0.074518 -0.000003 0.000081 -0.000002 -44.370014 0.346960 0.148822 0.000002 0.000000 -0.000001 -44.423664 -3.044403 -0.074314 0.000000 -0.000002 -0.000004 -8.728671 10.710558 0.000007 -0.000000 -0.000000 0.000000 -0.000680 9.278137 -0.000000 0.000000 -0.000001 
0.000006 104.270477 1.554256 0.000010 0.000003 -0.000113 -0.000005 10.181587 0.131522 0.000001 -0.000003 0.000084 -0.000000 9.893967 -1.470711 0.000001 0.000000 -0.000000 -0.000000 9.220802 -1.370642 0.000000 -0.000000 -0.000000 0.000001 16.740433 -2.049030 0.000000 -0.000000 -0.000000 0.000000 9.617859 1.685014 0.000000 0.000000 0.000000 0.000002 22.037384 7.501101 0.000000 -0.000000 0.000000 -4.569968 11.014880 -2.160881 0.000008 0.000001 -0.000038 -10.592881 -0.524711 -2.231982 71.348402 16.054204 -11.561784 -27.841518 0.000013 0.000538 -52.850064 112.452364 73.229661 -28.328819 0.000021 0.000023 -0.000321 -0.000044 0.000006 -2.464397 -1.573828 2.682356 -41.352223 -158.245197 4.944990 -3.215270 -1.872583 1.924651 156.386497 31.710485 3.115186 -2.654947 -1.527894 1.513077 148.134768 26.593821 -38.110605 -2.018831 -1.151994 1.108066 -0.000003 -0.000002 0.000004 -9.108362 -0.517557 2.260126 100.273775 15.797748 -18.922435 -3.700069 0.000339 0.001512 98.211871 12.322525 -14.183495 -2.850068 0.000383 -0.000256 98.118782 9.159405 -10.550353 -2.772178 -0.000015 -0.000020 -0.000000 0.000001 -0.000000 -9.532557 0.000272 0.000227 92.831806 14.633281 -15.513660 -3.700072 0.000359 0.003959 93.024280 9.820781 -10.253425 -2.950045 0.000326 -0.001815 96.351983 9.310361 -10.390891 -2.946614 0.000013 -0.000154 -0.000008 0.000002 -0.000001 -9.103680 -0.042740 -1.864887 94.869026 14.472174 -15.694672 -3.379291 0.000342 -0.000820 94.142301 5.652361 -6.093436 -2.889746 0.000371 0.000651 100.561613 4.201882 -5.109462 -2.638801 -0.000044 0.000935 -0.000003 0.000001 -0.000000 -8.076723 -0.486365 -3.805994 94.387655 14.486811 -15.469018 -3.600011 0.000299 -0.003511 95.921490 3.255498 -3.244866 -2.099978 0.000342 -0.005467 99.308212 1.057185 -1.003979 -2.115771 -0.000046 -0.003674 -0.000006 0.000003 -0.000005 4.570446 11.014691 -2.160851 -0.000018 0.000010 -0.000021 10.592509 -0.524511 -2.232394 69.051519 -55.214925 39.573737 27.841742 -0.000053 -0.000103 234.339310 -75.452260 247.125123 28.328842 -0.000029 0.000021 0.000023 -0.000086 -0.000001 2.466166 -1.576158 2.681884 56.523347 131.075906 -115.086447 3.217829 -1.871981 1.916541 269.787992 34.961560 36.589576 2.656074 -1.528724 1.514633 102.251586 -192.343755 204.301244 2.020906 -1.154044 1.115149 0.000001 0.000001 0.000002 9.109268 -0.517840 2.260121 83.966193 -163.137579 161.300163 3.699943 0.000186 -0.000062 -96.476463 -16.896196 -18.898601 2.849949 0.000210 0.000574 -96.220959 -14.896028 -16.584548 2.774877 -0.000015 -0.000030 0.000002 0.000001 0.000001 9.533207 0.000216 0.000255 224.440918 -36.665866 281.905949 3.700054 0.000279 -0.000335 126.035814 -10.363946 20.194725 2.950003 0.000278 -0.000198 105.431346 3.872742 -5.082185 2.952850 -0.000016 0.000063 0.000001 0.000000 0.000000 9.104310 -0.042896 -1.864915 205.084380 -31.679097 256.202172 3.149921 0.000389 -0.000099 126.970526 10.231102 -20.343070 2.949853 0.000306 -0.000175 103.198646 23.832265 -29.816679 2.644313 0.000032 0.000057 0.000000 0.000000 -0.000001 8.077541 -0.486665 -3.806102 202.393354 -21.589029 272.188147 3.599763 0.000428 0.014647 148.215091 12.680776 -41.896005 2.099824 0.000330 0.007526 119.630982 25.622253 -42.447426 2.125508 0.000001 0.007525 0.000005 -0.000000 0.000001 -8.207786 -6.751667 -1.599560 -0.077001 -0.000003 0.000080 -0.000002 -44.370110 0.345938 0.153719 -0.000000 -0.000000 0.000000 -44.423679 -3.043532 -0.076700 0.000000 -0.000002 -0.000006 -8.728667 10.710559 -0.000009 -0.000000 -0.000000 -0.000001 -0.000679 9.278123 0.000000 -0.000000 -0.000000 8.207792 -6.751710 -1.599556 -0.074518 -0.000003 0.000081 -0.000002 -44.370014 0.346960 0.148822 0.000002 0.000000 -0.000001 -44.423664 -3.044403 -0.074314 0.000000 -0.000002 -0.000004 -8.728671 10.710558 0.000007 -0.000000 -0.000000 0.000000 -0.000680 9.278137 -0.000000 0.000000 -0.000001 
